{
  "accessors": [
    {
      "bufferView": 0,
      "componentType": 5126,
      "count": 10036,
      "type": "VEC3",
      "max": [
        -0.064473003149032593,
        -0.028498999774456024,
        0.12681899964809418
      ],
      "min": [
        -0.19347900152206421,
        -0.20240400731563568,
        -1.9999999949504854E-06
      ]
    },
    {
      "bufferView": 1,
      "componentType": 5126,
      "count": 10036,
      "type": "VEC3",
      "max": [
        0.99999451637268066,
        0.99994301795959473,
        0.999854326248169
      ],
      "min": [
        -0.99992859363555908,
        -0.99930214881896973,
        -0.99979764223098755
      ]
    },
    {
      "bufferView": 2,
      "componentType": 5126,
      "count": 10036,
      "type": "VEC4",
      "max": [
        1.0,
        0.0,
        0.0,
        -1.0
      ],
      "min": [
        1.0,
        0.0,
        0.0,
        -1.0
      ]
    },
    {
      "bufferView": 3,
      "componentType": 5125,
      "count": 60000,
      "type": "SCALAR",
      "max": [
        10035.0
      ],
      "min": [
        0.0
      ]
    }
  ],
  "asset": {
    "generator": "UnityGLTF (2018.3.1f1)",
    "version": "2.0"
  },
  "buffers": [
    {
      "uri": "Unity2Skfb.bin",
      "byteLength": 641440
    }
  ],
  "bufferViews": [
    {
      "buffer": 0,
      "byteLength": 120432
    },
    {
      "buffer": 0,
      "byteOffset": 120432,
      "byteLength": 120432
    },
    {
      "buffer": 0,
      "byteOffset": 240864,
      "byteLength": 160576
    },
    {
      "buffer": 0,
      "byteOffset": 401440,
      "byteLength": 240000
    }
  ],
  "materials": [
    {
      "pbrMetallicRoughness": {
        "baseColorFactor": [
          0.13333334,
          0.113725491,
          0.670588255,
          1.0
        ],
        "metallicFactor": 0.30899998545646667,
        "roughnessFactor": 0.2720000147819519
      },
      "emissiveFactor": [
        0.1,
        0.1,
        0.1
      ],
      "name": "TissueMaterial"
    }
  ],
  "meshes": [
    {
      "primitives": [
        {
          "attributes": {
            "POSITION": 0,
            "NORMAL": 1,
            "TANGENT": 2
          },
          "indices": 3,
          "material": 0
        }
      ],
      "name": "default"
    }
  ],
  "nodes": [
    {
      "children": [
        1
      ],
      "rotation": [
        0.0,
        0.0,
        0.0,
        -1.0
      ],
      "translation": [
        0.0,
        0.0,
        -2.7
      ],
      "name": "Brain"
    },
    {
      "children": [
        2
      ],
      "rotation": [
        0.0,
        -1.0,
        0.0,
        0.0
      ],
      "name": "transform"
    },
    {
      "mesh": 0,
      "rotation": [
        -0.4972529,
        -0.00122798816,
        0.04155055,
        -0.8666093
      ],
      "scale": [
        0.949999869,
        0.9500002,
        0.9500003
      ],
      "translation": [
        0.1301,
        0.104300022,
        0.108000025
      ],
      "name": "default"
    }
  ],
  "scene": 0,
  "scenes": [
    {
      "nodes": [
        0
      ],
      "name": "Unity2Skfb"
    }
  ]
}