{
  "accessors": [
    {
      "bufferView": 0,
      "componentType": 5125,
      "count": 360,
      "max": [
        80.0
      ],
      "min": [
        0.0
      ],
      "type": "SCALAR"
    },
    {
      "bufferView": 0,
      "byteOffset": 1440,
      "componentType": 5125,
      "count": 384,
      "max": [
        84.0
      ],
      "min": [
        0.0
      ],
      "type": "SCALAR"
    },
    {
      "bufferView": 0,
      "byteOffset": 2976,
      "componentType": 5125,
      "count": 2751,
      "max": [
        539.0
      ],
      "min": [
        0.0
      ],
      "type": "SCALAR"
    },
    {
      "bufferView": 0,
      "byteOffset": 13980,
      "componentType": 5125,
      "count": 2193,
      "max": [
        462.0
      ],
      "min": [
        0.0
      ],
      "type": "SCALAR"
    },
    {
      "bufferView": 0,
      "byteOffset": 22752,
      "componentType": 5125,
      "count": 1812,
      "max": [
        373.0
      ],
      "min": [
        0.0
      ],
      "type": "SCALAR"
    },
    {
      "bufferView": 0,
      "byteOffset": 30000,
      "componentType": 5125,
      "count": 2112,
      "max": [
        439.0
      ],
      "min": [
        0.0
      ],
      "type": "SCALAR"
    },
    {
      "bufferView": 0,
      "byteOffset": 38448,
      "componentType": 5125,
      "count": 1989,
      "max": [
        417.0
      ],
      "min": [
        0.0
      ],
      "type": "SCALAR"
    },
    {
      "bufferView": 0,
      "byteOffset": 46404,
      "componentType": 5125,
      "count": 1839,
      "max": [
        388.0
      ],
      "min": [
        0.0
      ],
      "type": "SCALAR"
    },
    {
      "bufferView": 0,
      "byteOffset": 53760,
      "componentType": 5125,
      "count": 1755,
      "max": [
        365.0
      ],
      "min": [
        0.0
      ],
      "type": "SCALAR"
    },
    {
      "bufferView": 0,
      "byteOffset": 60780,
      "componentType": 5125,
      "count": 2319,
      "max": [
        467.0
      ],
      "min": [
        0.0
      ],
      "type": "SCALAR"
    },
    {
      "bufferView": 0,
      "byteOffset": 70056,
      "componentType": 5125,
      "count": 2532,
      "max": [
        545.0
      ],
      "min": [
        0.0
      ],
      "type": "SCALAR"
    },
    {
      "bufferView": 0,
      "byteOffset": 80184,
      "componentType": 5125,
      "count": 2556,
      "max": [
        536.0
      ],
      "min": [
        0.0
      ],
      "type": "SCALAR"
    },
    {
      "bufferView": 0,
      "byteOffset": 90408,
      "componentType": 5125,
      "count": 2196,
      "max": [
        454.0
      ],
      "min": [
        0.0
      ],
      "type": "SCALAR"
    },
    {
      "bufferView": 1,
      "componentType": 5126,
      "count": 81,
      "max": [
        1.03512442111969,
        0.7808734178543091,
        0.04031829908490181
      ],
      "min": [
        0.9882774949073792,
        0.4934803247451782,
        -0.09415796399116516
      ],
      "type": "VEC3"
    },
    {
      "bufferView": 2,
      "componentType": 5126,
      "count": 85,
      "max": [
        1.0010340213775635,
        0.7808734178543091,
        0.04031829908490181
      ],
      "min": [
        0.9655884504318237,
        0.4644690454006195,
        -0.09415796399116516
      ],
      "type": "VEC3"
    },
    {
      "bufferView": 3,
      "componentType": 5126,
      "count": 540,
      "max": [
        1.0868709087371826,
        1.2115200757980347,
        0.03070715442299843
      ],
      "min": [
        0.8451317548751831,
        0.0072312247939407825,
        -0.14202657341957092
      ],
      "type": "VEC3"
    },
    {
      "bufferView": 4,
      "componentType": 5126,
      "count": 463,
      "max": [
        1.129424810409546,
        1.193056344985962,
        0.06649355590343475
      ],
      "min": [
        0.9101313948631287,
        0.004000000189989805,
        -0.13993333280086517
      ],
      "type": "VEC3"
    },
    {
      "bufferView": 5,
      "componentType": 5126,
      "count": 374,
      "max": [
        1.1276975870132446,
        1.125998854637146,
        0.03362737596035004
      ],
      "min": [
        0.9267993569374084,
        0.0020407873671501875,
        -0.14089030027389526
      ],
      "type": "VEC3"
    },
    {
      "bufferView": 6,
      "componentType": 5126,
      "count": 440,
      "max": [
        1.0551856756210327,
        1.4273518323898315,
        0.09227064996957779
      ],
      "min": [
        0.8464715480804443,
        0.0017500000540167093,
        -0.16285690665245056
      ],
      "type": "VEC3"
    },
    {
      "bufferView": 7,
      "componentType": 5126,
      "count": 418,
      "max": [
        1.049580693244934,
        1.3783502578735352,
        0.0826745256781578
      ],
      "min": [
        0.8404574394226074,
        0.0041367607191205025,
        -0.1234675794839859
      ],
      "type": "VEC3"
    },
    {
      "bufferView": 8,
      "componentType": 5126,
      "count": 389,
      "max": [
        1.1109083890914917,
        1.3457273244857788,
        0.09806997328996658
      ],
      "min": [
        0.9592157006263733,
        0.0017500000540167093,
        -0.05399128422141075
      ],
      "type": "VEC3"
    },
    {
      "bufferView": 9,
      "componentType": 5126,
      "count": 366,
      "max": [
        1.1574671268463135,
        1.2231755256652832,
        0.08248881995677948
      ],
      "min": [
        0.9859306216239929,
        0.0017500000540167093,
        -0.05099327489733696
      ],
      "type": "VEC3"
    },
    {
      "bufferView": 10,
      "componentType": 5126,
      "count": 468,
      "max": [
        1.169181227684021,
        1.2807031869888306,
        0.07844404876232147
      ],
      "min": [
        0.9429727792739868,
        0.001500000013038516,
        -0.13221845030784607
      ],
      "type": "VEC3"
    },
    {
      "bufferView": 11,
      "componentType": 5126,
      "count": 546,
      "max": [
        1.0785366296768188,
        1.4247713088989258,
        0.09695348888635635
      ],
      "min": [
        0.8515796065330505,
        0.001500000013038516,
        -0.18129271268844604
      ],
      "type": "VEC3"
    },
    {
      "bufferView": 12,
      "componentType": 5126,
      "count": 537,
      "max": [
        1.1682692766189575,
        1.425510048866272,
        0.08201755583286285
      ],
      "min": [
        0.9021952748298645,
        0.001500000013038516,
        -0.14816603064537048
      ],
      "type": "VEC3"
    },
    {
      "bufferView": 13,
      "componentType": 5126,
      "count": 455,
      "max": [
        1.071500301361084,
        1.3584085702896118,
        0.06773722916841507
      ],
      "min": [
        0.8317007422447205,
        0.001500000013038516,
        -0.12847456336021423
      ],
      "type": "VEC3"
    },
    {
      "bufferView": 14,
      "componentType": 5126,
      "count": 81,
      "max": [
        0.729082465171814,
        -0.00594731792807579,
        0.8574653267860413
      ],
      "min": [
        -0.9987252950668335,
        -0.9178334474563599,
        -0.6505147814750671
      ],
      "type": "VEC3"
    },
    {
      "bufferView": 15,
      "componentType": 5126,
      "count": 85,
      "max": [
        0.9997707009315491,
        -0.0005391592276282609,
        0.8574653267860413
      ],
      "min": [
        -0.21258680522441864,
        -0.9178334474563599,
        -0.659174382686615
      ],
      "type": "VEC3"
    },
    {
      "bufferView": 16,
      "componentType": 5126,
      "count": 540,
      "max": [
        0.9991914629936218,
        0.9873324036598206,
        0.9994409680366516
      ],
      "min": [
        -0.9958108067512512,
        -0.9488080739974976,
        -0.9999671578407288
      ],
      "type": "VEC3"
    },
    {
      "bufferView": 17,
      "componentType": 5126,
      "count": 463,
      "max": [
        0.9997707009315491,
        0.9983033537864685,
        0.9842849373817444
      ],
      "min": [
        -0.9999202489852905,
        -0.816788375377655,
        -0.9996748566627502
      ],
      "type": "VEC3"
    },
    {
      "bufferView": 18,
      "componentType": 5126,
      "count": 374,
      "max": [
        0.9929150938987732,
        0.9983033537864685,
        0.7281710505485535
      ],
      "min": [
        -0.9925827980041504,
        -0.9993450045585632,
        -0.9999037981033325
      ],
      "type": "VEC3"
    },
    {
      "bufferView": 19,
      "componentType": 5126,
      "count": 440,
      "max": [
        0.9634626507759094,
        0.9984036087989807,
        0.999387800693512
      ],
      "min": [
        -0.9991090297698975,
        -0.7505680918693542,
        -0.9995913505554199
      ],
      "type": "VEC3"
    },
    {
      "bufferView": 20,
      "componentType": 5126,
      "count": 418,
      "max": [
        0.981210470199585,
        0.9984036087989807,
        0.9947727918624878
      ],
      "min": [
        -0.9991090297698975,
        -0.53017657995224,
        -0.9984652996063232
      ],
      "type": "VEC3"
    },
    {
      "bufferView": 21,
      "componentType": 5126,
      "count": 389,
      "max": [
        0.7800565958023071,
        0.9850253462791443,
        0.9996871948242188
      ],
      "min": [
        -0.9907541871070862,
        -0.7001863718032837,
        -0.7886956930160522
      ],
      "type": "VEC3"
    },
    {
      "bufferView": 22,
      "componentType": 5126,
      "count": 366,
      "max": [
        0.9739344120025635,
        0.902228057384491,
        0.9991573095321655
      ],
      "min": [
        -0.8251457214355469,
        -0.9603931903839111,
        -0.9593912959098816
      ],
      "type": "VEC3"
    },
    {
      "bufferView": 23,
      "componentType": 5126,
      "count": 468,
      "max": [
        0.9979332089424133,
        0.9677630662918091,
        0.972040057182312
      ],
      "min": [
        -0.8356199264526367,
        -0.9993450045585632,
        -0.9992184638977051
      ],
      "type": "VEC3"
    },
    {
      "bufferView": 24,
      "componentType": 5126,
      "count": 546,
      "max": [
        0.9160711169242859,
        0.9998759627342224,
        0.9996871948242188
      ],
      "min": [
        -0.9998903870582581,
        -0.9748163223266602,
        -0.9995913505554199
      ],
      "type": "VEC3"
    },
    {
      "bufferView": 25,
      "componentType": 5126,
      "count": 537,
      "max": [
        0.9989116787910461,
        0.8757385611534119,
        0.9989558458328247
      ],
      "min": [
        -0.8128397464752197,
        -0.9981364607810974,
        -0.999716579914093
      ],
      "type": "VEC3"
    },
    {
      "bufferView": 26,
      "componentType": 5126,
      "count": 455,
      "max": [
        0.9923648834228516,
        0.9873324036598206,
        0.9347149133682251
      ],
      "min": [
        -0.9989242553710938,
        -0.7921836972236633,
        -0.9995982646942139
      ],
      "type": "VEC3"
    },
    {
      "bufferView": 27,
      "componentType": 5126,
      "count": 81,
      "max": [
        630.5415649414063,
        508.0178527832031
      ],
      "min": [
        507.4112854003906,
        203.3995819091797
      ],
      "type": "VEC2"
    },
    {
      "bufferView": 28,
      "componentType": 5126,
      "count": 85,
      "max": [
        526.7965087890625,
        429.2215576171875
      ],
      "min": [
        397.15814208984375,
        123.13057708740234
      ],
      "type": "VEC2"
    },
    {
      "bufferView": 29,
      "componentType": 5126,
      "count": 540,
      "max": [
        -1295.6463623046875,
        363.9704895019531
      ],
      "min": [
        -1737.87841796875,
        -982.1785888671875
      ],
      "type": "VEC2"
    },
    {
      "bufferView": 30,
      "componentType": 5126,
      "count": 463,
      "max": [
        1373.95263671875,
        824.5388793945313
      ],
      "min": [
        977.4594116210938,
        -560.604248046875
      ],
      "type": "VEC2"
    },
    {
      "bufferView": 31,
      "componentType": 5126,
      "count": 374,
      "max": [
        -805.3569946289063,
        465.77886962890625
      ],
      "min": [
        -1088.4755859375,
        -849.5866088867188
      ],
      "type": "VEC2"
    },
    {
      "bufferView": 32,
      "componentType": 5126,
      "count": 440,
      "max": [
        151.77613830566406,
        770.9644165039063
      ],
      "min": [
        -58.853477478027344,
        -845.197021484375
      ],
      "type": "VEC2"
    },
    {
      "bufferView": 33,
      "componentType": 5126,
      "count": 418,
      "max": [
        357.58001708984375,
        687.4625854492188
      ],
      "min": [
        -35.618385314941406,
        -826.7196044921875
      ],
      "type": "VEC2"
    },
    {
      "bufferView": 34,
      "componentType": 5126,
      "count": 389,
      "max": [
        -182.55282592773438,
        618.587158203125
      ],
      "min": [
        -310.82122802734375,
        -901.070068359375
      ],
      "type": "VEC2"
    },
    {
      "bufferView": 35,
      "componentType": 5126,
      "count": 366,
      "max": [
        -278.4555969238281,
        461.1564636230469
      ],
      "min": [
        -450.9031066894531,
        -917.2778930664063
      ],
      "type": "VEC2"
    },
    {
      "bufferView": 36,
      "componentType": 5126,
      "count": 468,
      "max": [
        -520.881591796875,
        364.67779541015625
      ],
      "min": [
        -825.98486328125,
        -1096.1275634765625
      ],
      "type": "VEC2"
    },
    {
      "bufferView": 37,
      "componentType": 5126,
      "count": 546,
      "max": [
        426.6591491699219,
        1024.99755859375
      ],
      "min": [
        -451.69708251953125,
        -722.2317504882813
      ],
      "type": "VEC2"
    },
    {
      "bufferView": 38,
      "componentType": 5126,
      "count": 537,
      "max": [
        -36.373199462890625,
        717.9843139648438
      ],
      "min": [
        -926.1690673828125,
        -1042.7166748046875
      ],
      "type": "VEC2"
    },
    {
      "bufferView": 39,
      "componentType": 5126,
      "count": 455,
      "max": [
        -198.04010009765625,
        878.3145751953125
      ],
      "min": [
        -470.3458557128906,
        -672.955078125
      ],
      "type": "VEC2"
    }
  ],
  "asset": {
    "generator": "CLO Network OnlineAuth",
    "version": "2.0"
  },
  "bufferViews": [
    {
      "buffer": 0,
      "byteLength": 99192
    },
    {
      "buffer": 0,
      "byteLength": 972,
      "byteOffset": 99192
    },
    {
      "buffer": 0,
      "byteLength": 1020,
      "byteOffset": 100164
    },
    {
      "buffer": 0,
      "byteLength": 6480,
      "byteOffset": 101184
    },
    {
      "buffer": 0,
      "byteLength": 5556,
      "byteOffset": 107664
    },
    {
      "buffer": 0,
      "byteLength": 4488,
      "byteOffset": 113220
    },
    {
      "buffer": 0,
      "byteLength": 5280,
      "byteOffset": 117708
    },
    {
      "buffer": 0,
      "byteLength": 5016,
      "byteOffset": 122988
    },
    {
      "buffer": 0,
      "byteLength": 4668,
      "byteOffset": 128004
    },
    {
      "buffer": 0,
      "byteLength": 4392,
      "byteOffset": 132672
    },
    {
      "buffer": 0,
      "byteLength": 5616,
      "byteOffset": 137064
    },
    {
      "buffer": 0,
      "byteLength": 6552,
      "byteOffset": 142680
    },
    {
      "buffer": 0,
      "byteLength": 6444,
      "byteOffset": 149232
    },
    {
      "buffer": 0,
      "byteLength": 5460,
      "byteOffset": 155676
    },
    {
      "buffer": 0,
      "byteLength": 972,
      "byteOffset": 161136
    },
    {
      "buffer": 0,
      "byteLength": 1020,
      "byteOffset": 162108
    },
    {
      "buffer": 0,
      "byteLength": 6480,
      "byteOffset": 163128
    },
    {
      "buffer": 0,
      "byteLength": 5556,
      "byteOffset": 169608
    },
    {
      "buffer": 0,
      "byteLength": 4488,
      "byteOffset": 175164
    },
    {
      "buffer": 0,
      "byteLength": 5280,
      "byteOffset": 179652
    },
    {
      "buffer": 0,
      "byteLength": 5016,
      "byteOffset": 184932
    },
    {
      "buffer": 0,
      "byteLength": 4668,
      "byteOffset": 189948
    },
    {
      "buffer": 0,
      "byteLength": 4392,
      "byteOffset": 194616
    },
    {
      "buffer": 0,
      "byteLength": 5616,
      "byteOffset": 199008
    },
    {
      "buffer": 0,
      "byteLength": 6552,
      "byteOffset": 204624
    },
    {
      "buffer": 0,
      "byteLength": 6444,
      "byteOffset": 211176
    },
    {
      "buffer": 0,
      "byteLength": 5460,
      "byteOffset": 217620
    },
    {
      "buffer": 0,
      "byteLength": 648,
      "byteOffset": 223080
    },
    {
      "buffer": 0,
      "byteLength": 680,
      "byteOffset": 223728
    },
    {
      "buffer": 0,
      "byteLength": 4320,
      "byteOffset": 224408
    },
    {
      "buffer": 0,
      "byteLength": 3704,
      "byteOffset": 228728
    },
    {
      "buffer": 0,
      "byteLength": 2992,
      "byteOffset": 232432
    },
    {
      "buffer": 0,
      "byteLength": 3520,
      "byteOffset": 235424
    },
    {
      "buffer": 0,
      "byteLength": 3344,
      "byteOffset": 238944
    },
    {
      "buffer": 0,
      "byteLength": 3112,
      "byteOffset": 242288
    },
    {
      "buffer": 0,
      "byteLength": 2928,
      "byteOffset": 245400
    },
    {
      "buffer": 0,
      "byteLength": 3744,
      "byteOffset": 248328
    },
    {
      "buffer": 0,
      "byteLength": 4368,
      "byteOffset": 252072
    },
    {
      "buffer": 0,
      "byteLength": 4296,
      "byteOffset": 256440
    },
    {
      "buffer": 0,
      "byteLength": 3640,
      "byteOffset": 260736
    }
  ],
  "buffers": [
    {
      "byteLength": 264376,
      "name": "Geometry_Buffer",
      "uri": "data:application/octet-stream;base64,"
    }
  ],
  "extensionsUsed": [
    "CLO_materials_reflection_intensity"
  ],
  "materials": [
    {
      "doubleSided": true,
      "extensions": {
        "CLO_materials_reflection_intensity": {
          "reflectionFactor": 0.6000000238418579
        }
      },
      "name": "FABRIC 1_FRONT_1358",
      "pbrMetallicRoughness": {
        "baseColorFactor": [
          0.859173595905304,
          0.8277258276939392,
          0.7969165444374084,
          1.0
        ],
        "metallicFactor": 0.0,
        "roughnessFactor": 0.19999998807907104
      }
    },
    {
      "doubleSided": true,
      "extensions": {
        "CLO_materials_reflection_intensity": {
          "reflectionFactor": 0.6000000238418579
        }
      },
      "name": "FABRIC 1_FRONT_1348",
      "pbrMetallicRoughness": {
        "baseColorFactor": [
          0.859173595905304,
          0.8277258276939392,
          0.7969165444374084,
          1.0
        ],
        "metallicFactor": 0.0,
        "roughnessFactor": 0.19999998807907104
      }
    },
    {
      "alphaMode": "BLEND",
      "doubleSided": true,
      "extensions": {
        "CLO_materials_reflection_intensity": {
          "reflectionFactor": 0.15000000596046448
        }
      },
      "name": "FABRIC 2_FRONT_1353",
      "pbrMetallicRoughness": {
        "baseColorFactor": [
          1.0,
          1.0,
          1.0,
          0.5600000023841858
        ],
        "metallicFactor": 0.0,
        "roughnessFactor": 0.5
      }
    },
    {
      "doubleSided": true,
      "extensions": {
        "CLO_materials_reflection_intensity": {
          "reflectionFactor": 0.15000000596046448
        }
      },
      "name": "Default Fabric_FRONT_1363",
      "pbrMetallicRoughness": {
        "metallicFactor": 0.0,
        "roughnessFactor": 0.5
      }
    }
  ],
  "meshes": [
    {
      "name": "Cloth_mesh",
      "primitives": [
        {
          "attributes": {
            "NORMAL": 26,
            "POSITION": 13,
            "TEXCOORD_0": 39
          },
          "indices": 0,
          "material": 0
        },
        {
          "attributes": {
            "NORMAL": 27,
            "POSITION": 14,
            "TEXCOORD_0": 40
          },
          "indices": 1,
          "material": 1
        },
        {
          "attributes": {
            "NORMAL": 28,
            "POSITION": 15,
            "TEXCOORD_0": 41
          },
          "indices": 2,
          "material": 2
        },
        {
          "attributes": {
            "NORMAL": 29,
            "POSITION": 16,
            "TEXCOORD_0": 42
          },
          "indices": 3,
          "material": 3
        },
        {
          "attributes": {
            "NORMAL": 30,
            "POSITION": 17,
            "TEXCOORD_0": 43
          },
          "indices": 4,
          "material": 2
        },
        {
          "attributes": {
            "NORMAL": 31,
            "POSITION": 18,
            "TEXCOORD_0": 44
          },
          "indices": 5,
          "material": 2
        },
        {
          "attributes": {
            "NORMAL": 32,
            "POSITION": 19,
            "TEXCOORD_0": 45
          },
          "indices": 6,
          "material": 1
        },
        {
          "attributes": {
            "NORMAL": 33,
            "POSITION": 20,
            "TEXCOORD_0": 46
          },
          "indices": 7,
          "material": 1
        },
        {
          "attributes": {
            "NORMAL": 34,
            "POSITION": 21,
            "TEXCOORD_0": 47
          },
          "indices": 8,
          "material": 2
        },
        {
          "attributes": {
            "NORMAL": 35,
            "POSITION": 22,
            "TEXCOORD_0": 48
          },
          "indices": 9,
          "material": 1
        },
        {
          "attributes": {
            "NORMAL": 36,
            "POSITION": 23,
            "TEXCOORD_0": 49
          },
          "indices": 10,
          "material": 3
        },
        {
          "attributes": {
            "NORMAL": 37,
            "POSITION": 24,
            "TEXCOORD_0": 50
          },
          "indices": 11,
          "material": 3
        },
        {
          "attributes": {
            "NORMAL": 38,
            "POSITION": 25,
            "TEXCOORD_0": 51
          },
          "indices": 12,
          "material": 3
        }
      ]
    }
  ],
  "nodes": [
    {
      "children": [
        1
      ],
      "name": "T6_Garment_Jumpsuit_GLTF_Scene_Node"
    },
    {
      "mesh": 0,
      "name": "Cloth"
    }
  ],
  "scene": 0,
  "scenes": [
    {
      "nodes": [
        0
      ]
    }
  ]
}