{
    "asset" : {
        "generator" : "Khronos glTF Blender I/O v1.5.17",
        "version" : "2.0"
    },
    "scene" : 0,
    "scenes" : [
        {
            "name" : "Scene",
            "nodes" : [
                0,
                1,
                2
            ]
        }
    ],
    "nodes" : [
        {
            "mesh" : 0,
            "name" : "jaygt",
            "rotation" : [
                0.5,
                0.5,
                -0.5,
                -0.5
            ],
            "translation" : [
                0.02219964563846588,
                0.2462652325630188,
                0.08710155636072159
            ]
        },
        {
            "name" : "Light",
            "rotation" : [
                0.16907575726509094,
                0.7558803558349609,
                -0.27217137813568115,
                0.570947527885437
            ],
            "translation" : [
                4.076245307922363,
                5.903861999511719,
                -1.0054539442062378
            ]
        },
        {
            "name" : "Camera",
            "rotation" : [
                0.483536034822464,
                0.33687159419059753,
                -0.20870360732078552,
                0.7804827094078064
            ],
            "translation" : [
                7.358891487121582,
                4.958309173583984,
                6.925790786743164
            ]
        }
    ],
    "materials" : [
        {
            "name" : "Material.001",
            "pbrMetallicRoughness" : {}
        }
    ],
    "meshes" : [
        {
            "name" : "jaygt",
            "primitives" : [
                {
                    "attributes" : {
                        "POSITION" : 0,
                        "NORMAL" : 1
                    },
                    "indices" : 2,
                    "material" : 0
                }
            ]
        }
    ],
    "accessors" : [
        {
            "bufferView" : 0,
            "componentType" : 5126,
            "count" : 335304,
            "max" : [
                0.1041639968752861,
                -0.3727419972419739,
                0.055573999881744385
            ],
            "min" : [
                -0.09992799907922745,
                -0.4643760025501251,
                -0.05133499950170517
            ],
            "type" : "VEC3"
        },
        {
            "bufferView" : 1,
            "componentType" : 5126,
            "count" : 335304,
            "type" : "VEC3"
        },
        {
            "bufferView" : 2,
            "componentType" : 5125,
            "count" : 335316,
            "type" : "SCALAR"
        }
    ],
    "bufferViews" : [
        {
            "buffer" : 0,
            "byteLength" : 4023648,
            "byteOffset" : 0
        },
        {
            "buffer" : 0,
            "byteLength" : 4023648,
            "byteOffset" : 4023648
        },
        {
            "buffer" : 0,
            "byteLength" : 1341264,
            "byteOffset" : 8047296
        }
    ],
    "buffers" : [
        {
            "byteLength" : 9388560,
            "uri" : "untitled.bin"
        }
    ]
}
