{
	"scenes":[{
		"nodes":[0]
	}],
	"asset":{
		"version":"2.0",
		"generator":"Created using the official Cinema 4D glTF Exporter 1.000x284978"
	},
	"nodes":[{
		"name":"jaygt",
		"translation":[0.02219964563846588,
		0.2462652325630188,
		0.08710155636072159],
		"rotation":[0.5,
		0.5,
		-0.5,
		-0.5],
		"scale":[1.0,
		1.0,
		1.0],
		"mesh":0
	}],
	"meshes":[{
		"name":"jaygt",
		"primitives":[{
			"attributes":{
				"POSITION":1
			},
			"indices":0,
			"material":0
		}]
	}],
	"accessors":[{
		"bufferView":0,
		"max":[55932],
		"type":"SCALAR",
		"componentType":5123,
		"count":335331,
		"byteOffset":0,
		"min":[0]
	},
	{
		"bufferView":1,
		"max":[0.1041639968752861,
		-0.3727419972419739,
		0.055573999881744388],
		"type":"VEC3",
		"componentType":5126,
		"count":55933,
		"byteOffset":0,
		"min":[-0.09992799907922745,
		-0.519491970539093,
		-0.05133499950170517]
	}],
	"bufferViews":[{
		"buffer":0,
		"byteOffset":0,
		"byteLength":670662,
		"target":34963
	},
	{
		"buffer":0,
		"byteOffset":670664,
		"byteLength":671196,
		"target":34962
	}],
	"buffers":[{
		"uri":"data:application/octet-stream;base64,",
		"byteLength":1341860
	}],
	"materials":[{
		"name":"",
		"pbrMetallicRoughness":{
			"baseColorFactor":[1.0,
			1.0,
			1.0,
			1.0],
			"metallicFactor":1.0,
			"roughnessFactor":1.0
		},
		"emissiveFactor":[0.0,
		0.0,
		0.0],
		"alphaMode":"OPAQUE",
		"doubleSided":false
	}]
}