{
  "accessors": [
    {
      "bufferView": 2,
      "componentType": 5126,
      "count": 515,
      "max": [
        0.5,
        0.5,
        0.5
      ],
      "min": [
        -0.5,
        -0.5,
        -0.5
      ],
      "type": "VEC3"
    },
    {
      "bufferView": 2,
      "byteOffset": 6180,
      "componentType": 5126,
      "count": 515,
      "max": [
        0.99997496604919434,
        1,
        0.99997365474700928
      ],
      "min": [
        -0.99997484683990479,
        -1,
        -0.9999769926071167
      ],
      "type": "VEC3"
    },
    {
      "bufferView": 3,
      "componentType": 5126,
      "count": 515,
      "max": [
        1,
        0.056131001561880112,
        1,
        1
      ],
      "min": [
        -1,
        -0.065983392298221588,
        -1,
        -1
      ],
      "type": "VEC4"
    },
    {
      "bufferView": 1,
      "componentType": 5126,
      "count": 515,
      "max": [
        0.99833369255065918,
        0.97589123249053955
      ],
      "min": [
        -0.00092136859893798828,
        0.017628978937864304
      ],
      "type": "VEC2"
    },
    {
      "bufferView": 1,
      "byteOffset": 4120,
      "componentType": 5126,
      "count": 515,
      "max": [
        1.0000003576278687,
        0.65385353565216064
      ],
      "min": [
        0,
        0
      ],
      "type": "VEC2"
    },
    {
      "bufferView": 0,
      "componentType": 5125,
      "count": 2304,
      "max": [
        514
      ],
      "min": [
        0
      ],
      "type": "SCALAR"
    },
    {
      "bufferView": 2,
      "byteOffset": 12360,
      "componentType": 5126,
      "count": 515,
      "max": [
        0.5,
        0.5,
        0.5
      ],
      "min": [
        -0.5,
        -0.5,
        -0.5
      ],
      "type": "VEC3"
    },
    {
      "bufferView": 2,
      "byteOffset": 18540,
      "componentType": 5126,
      "count": 515,
      "max": [
        0.99997496604919434,
        1,
        0.99997365474700928
      ],
      "min": [
        -0.99997484683990479,
        -1,
        -0.9999769926071167
      ],
      "type": "VEC3"
    },
    {
      "bufferView": 3,
      "byteOffset": 8240,
      "componentType": 5126,
      "count": 515,
      "max": [
        1,
        0.056131001561880112,
        1,
        1
      ],
      "min": [
        -1,
        -0.065983392298221588,
        -1,
        -1
      ],
      "type": "VEC4"
    },
    {
      "bufferView": 1,
      "byteOffset": 8240,
      "componentType": 5126,
      "count": 515,
      "max": [
        0.99833369255065918,
        0.97589123249053955
      ],
      "min": [
        -0.00092136859893798828,
        0.017628978937864304
      ],
      "type": "VEC2"
    },
    {
      "bufferView": 1,
      "byteOffset": 12360,
      "componentType": 5126,
      "count": 515,
      "max": [
        1.0000003576278687,
        0.65385353565216064
      ],
      "min": [
        0,
        0
      ],
      "type": "VEC2"
    },
    {
      "bufferView": 0,
      "byteOffset": 9216,
      "componentType": 5125,
      "count": 2304,
      "max": [
        514
      ],
      "min": [
        0
      ],
      "type": "SCALAR"
    },
    {
      "bufferView": 2,
      "byteOffset": 24720,
      "componentType": 5126,
      "count": 24,
      "max": [
        0.5,
        0.5,
        0.5
      ],
      "min": [
        -0.5,
        -0.5,
        -0.5
      ],
      "type": "VEC3"
    },
    {
      "bufferView": 2,
      "byteOffset": 25008,
      "componentType": 5126,
      "count": 24,
      "max": [
        1,
        1,
        1
      ],
      "min": [
        -1,
        -1,
        -1
      ],
      "type": "VEC3"
    },
    {
      "bufferView": 3,
      "byteOffset": 16480,
      "componentType": 5126,
      "count": 24,
      "max": [
        0,
        0,
        1,
        1
      ],
      "min": [
        -1,
        0,
        -1,
        1
      ],
      "type": "VEC4"
    },
    {
      "bufferView": 1,
      "byteOffset": 16480,
      "componentType": 5126,
      "count": 24,
      "max": [
        1,
        1
      ],
      "min": [
        0,
        0
      ],
      "type": "VEC2"
    },
    {
      "bufferView": 1,
      "byteOffset": 16672,
      "componentType": 5126,
      "count": 24,
      "max": [
        0.9966580867767334,
        0.65283584594726562
      ],
      "min": [
        0.0040557663887739182,
        0.0040557663887739182
      ],
      "type": "VEC2"
    },
    {
      "bufferView": 0,
      "byteOffset": 18432,
      "componentType": 5125,
      "count": 36,
      "max": [
        23
      ],
      "min": [
        0
      ],
      "type": "SCALAR"
    },
    {
      "bufferView": 4,
      "componentType": 5126,
      "count": 322,
      "max": [
        10.700000762939453
      ],
      "min": [
        0
      ],
      "type": "SCALAR"
    },
    {
      "bufferView": 5,
      "componentType": 5126,
      "count": 322,
      "max": [
        0,
        -0.010479879565536976,
        -0,
        0.99980992078781128
      ],
      "min": [
        0,
        -0.99999994039535522,
        -0,
        -0.99994510412216187
      ],
      "type": "VEC4"
    },
    {
      "bufferView": 4,
      "byteOffset": 1288,
      "componentType": 5126,
      "count": 322,
      "max": [
        10.700000762939453
      ],
      "min": [
        0
      ],
      "type": "SCALAR"
    },
    {
      "bufferView": 5,
      "byteOffset": 5152,
      "componentType": 5126,
      "count": 322,
      "max": [
        0,
        -0.010479879565536976,
        -0,
        0.99980992078781128
      ],
      "min": [
        0,
        -0.99999994039535522,
        -0,
        -0.99994510412216187
      ],
      "type": "VEC4"
    }
  ],
  "animations": [
    {
      "channels": [
        {
          "sampler": 0,
          "target": {
            "node": 7,
            "path": "rotation"
          }
        },
        {
          "sampler": 1,
          "target": {
            "node": 11,
            "path": "rotation"
          }
        }
      ],
      "name": "Take 001",
      "samplers": [
        {
          "input": 18,
          "interpolation": "LINEAR",
          "output": 19
        },
        {
          "input": 20,
          "interpolation": "LINEAR",
          "output": 21
        }
      ]
    }
  ],
  "asset": {
    "extras": {
      "author": "Tommensink (https://sketchfab.com/Tommensink)",
      "license": "CC-BY-4.0 (http://creativecommons.org/licenses/by/4.0/)",
      "source": "https://sketchfab.com/models/6694548c70da4966ab5749ec25596a2f",
      "title": "Art"
    },
    "generator": "Sketchfab-3.54.8-rc1",
    "version": "2.0"
  },
  "bufferViews": [
    {
      "buffer": 0,
      "byteLength": 18576,
      "byteOffset": 0,
      "name": "floatBufferViews",
      "target": 34963
    },
    {
      "buffer": 0,
      "byteLength": 16864,
      "byteOffset": 18576,
      "byteStride": 8,
      "name": "floatBufferViews",
      "target": 34962
    },
    {
      "buffer": 0,
      "byteLength": 25296,
      "byteOffset": 35440,
      "byteStride": 12,
      "name": "floatBufferViews",
      "target": 34962
    },
    {
      "buffer": 0,
      "byteLength": 16864,
      "byteOffset": 60736,
      "byteStride": 16,
      "name": "floatBufferViews",
      "target": 34962
    },
    {
      "buffer": 0,
      "byteLength": 2576,
      "byteOffset": 77600,
      "name": "floatBufferViews"
    },
    {
      "buffer": 0,
      "byteLength": 10304,
      "byteOffset": 80176,
      "byteStride": 16,
      "name": "floatBufferViews"
    }
  ],
  "buffers": [
    {
      "byteLength": 90480,
      "uri": "art_snow.bin"
    }
  ],
  "images": [
    {
      "uri": "textures/SnowBowl_baseColor.png"
    }
  ],
  "materials": [
    {
      "alphaMode": "BLEND",
      "doubleSided": false,
      "emissiveFactor": [
        0.87055099999999996,
        0.87055099999999996,
        0.87055099999999996
      ],
      "name": "SnowBowl",
      "pbrMetallicRoughness": {
        "baseColorFactor": [
          1,
          1,
          1,
          0.611765
        ],
        "baseColorTexture": {
          "index": 0,
          "texCoord": 0
        },
        "metallicFactor": 0,
        "roughnessFactor": 0.5
      }
    },
    {
      "doubleSided": false,
      "emissiveFactor": [
        0,
        0,
        0
      ],
      "name": "material",
      "pbrMetallicRoughness": {
        "baseColorFactor": [
          1,
          0,
          0,
          1
        ],
        "metallicFactor": 0,
        "roughnessFactor": 0.5
      }
    }
  ],
  "meshes": [
    {
      "primitives": [
        {
          "attributes": {
            "NORMAL": 1,
            "POSITION": 0,
            "TANGENT": 2,
            "TEXCOORD_0": 3,
            "TEXCOORD_1": 4
          },
          "indices": 5,
          "material": 0,
          "mode": 4
        }
      ]
    },
    {
      "primitives": [
        {
          "attributes": {
            "NORMAL": 7,
            "POSITION": 6,
            "TANGENT": 8,
            "TEXCOORD_0": 9,
            "TEXCOORD_1": 10
          },
          "indices": 11,
          "material": 0,
          "mode": 4
        }
      ]
    },
    {
      "primitives": [
        {
          "attributes": {
            "NORMAL": 13,
            "POSITION": 12,
            "TANGENT": 14,
            "TEXCOORD_0": 15,
            "TEXCOORD_1": 16
          },
          "indices": 17,
          "material": 1,
          "mode": 4
        }
      ]
    }
  ],
  "nodes": [
    {
      "children": [
        1
      ],
      "name": "RootNode (gltf orientation matrix)",
      "rotation": [
        -0.70710678118654746,
        -0,
        -0,
        0.70710678118654757
      ]
    },
    {
      "children": [
        2
      ],
      "name": "RootNode (model correction matrix)"
    },
    {
      "children": [
        3
      ],
      "name": "root"
    },
    {
      "children": [
        4
      ],
      "matrix": [
        1,
        0,
        0,
        0,
        0,
        2.2204460492503131e-16,
        1,
        0,
        0,
        -1,
        2.2204460492503131e-16,
        0,
        0,
        0,
        0,
        1
      ],
      "name": "GLTF_SceneRootNode"
    },
    {
      "children": [
        5,
        9,
        13
      ],
      "matrix": [
        0.3539646136165488,
        -0,
        -0.93525894314135316,
        0,
        0,
        1,
        0,
        0,
        0.93525894314135316,
        0,
        0.3539646136165488,
        0,
        1.2223117351531982,
        0,
        0.20800447463989258,
        1
      ],
      "name": "Snow_0"
    },
    {
      "children": [
        6
      ],
      "matrix": [
        3.8490248292212046,
        2.5189200049384177,
        0.0069996699464065504,
        0,
        -2.4873601901052487,
        3.8027880569689039,
        -0.71543091984753426,
        0,
        -0.39755033811820029,
        0.59484798487962653,
        4.5440190059204628,
        0,
        0,
        1.559999942779541,
        -0.04999995231628418,
        1
      ],
      "name": "Sphere_1"
    },
    {
      "children": [
        7
      ],
      "matrix": [
        0.99999999999999989,
        1.1408701539039612e-08,
        0,
        0,
        -1.1408701539039612e-08,
        0.99999999999999989,
        -0,
        0,
        -0,
        0,
        1,
        0,
        0,
        0,
        0,
        1
      ],
      "name": "Sphere_2"
    },
    {
      "children": [
        8
      ],
      "name": "Sphere_3",
      "rotation": [
        0,
        0,
        0,
        -1
      ]
    },
    {
      "mesh": 0,
      "name": ""
    },
    {
      "children": [
        10
      ],
      "matrix": [
        2.2800172870336075,
        -1.4746470308346835,
        3.0719597203194948,
        0,
        2.1767562543079686,
        3.4740495405152991,
        0.052069351480999337,
        0,
        -2.621688882790274,
        1.6019972354791889,
        2.714839125502281,
        0,
        0,
        1.559999942779541,
        -0.04999995231628418,
        1
      ],
      "name": "Sphere (2)_4"
    },
    {
      "children": [
        11
      ],
      "matrix": [
        0.99999999999999989,
        1.1408701539039612e-08,
        0,
        0,
        -1.1408701539039612e-08,
        0.99999999999999989,
        -0,
        0,
        -0,
        0,
        1,
        0,
        0,
        0,
        0,
        1
      ],
      "name": "Sphere_5"
    },
    {
      "children": [
        12
      ],
      "name": "Sphere_6",
      "rotation": [
        0,
        0,
        0,
        -1
      ]
    },
    {
      "mesh": 1,
      "name": ""
    },
    {
      "children": [
        14
      ],
      "matrix": [
        1,
        0,
        0,
        0,
        0,
        1,
        0,
        0,
        0,
        0,
        1,
        0,
        0,
        4.3899998664855957,
        0,
        1
      ],
      "name": "Cube_7"
    },
    {
      "mesh": 2,
      "name": ""
    }
  ],
  "samplers": [
    {
      "magFilter": 9729,
      "minFilter": 9729,
      "wrapS": 10497,
      "wrapT": 10497
    }
  ],
  "scene": 0,
  "scenes": [
    {
      "name": "OSG_Scene",
      "nodes": [
        0
      ]
    }
  ],
  "textures": [
    {
      "sampler": 0,
      "source": 0
    }
  ]
}

