{
  "accessors": [
    {
      "bufferView": 1,
      "componentType": 5126,
      "count": 4946,
      "max": [
        -0.046201001852750778,
        -0.012567999772727489,
        -0
      ],
      "min": [
        -0.21766200661659241,
        -0.22259899973869324,
        -0.19119499623775482
      ],
      "type": "VEC3"
    },
    {
      "bufferView": 1,
      "byteOffset": 59352,
      "componentType": 5126,
      "count": 4946,
      "max": [
        1,
        1,
        1
      ],
      "min": [
        -1,
        -1,
        -1
      ],
      "type": "VEC3"
    },
    {
      "bufferView": 2,
      "componentType": 5126,
      "count": 4946,
      "max": [
        1,
        0,
        -0,
        1
      ],
      "min": [
        1,
        0,
        -0,
        1
      ],
      "type": "VEC4"
    },
    {
      "bufferView": 0,
      "componentType": 5125,
      "count": 29997,
      "max": [
        4945
      ],
      "min": [
        0
      ],
      "type": "SCALAR"
    },
    {
      "bufferView": 1,
      "byteOffset": 118704,
      "componentType": 5126,
      "count": 4625,
      "max": [
        -0.058993000537157059,
        -0.034012999385595322,
        -0
      ],
      "min": [
        -0.20439200103282928,
        -0.21901200711727142,
        -0.1855819970369339
      ],
      "type": "VEC3"
    },
    {
      "bufferView": 1,
      "byteOffset": 174204,
      "componentType": 5126,
      "count": 4625,
      "max": [
        0.99958258867263794,
        1,
        1
      ],
      "min": [
        -1,
        -1,
        -1
      ],
      "type": "VEC3"
    },
    {
      "bufferView": 2,
      "byteOffset": 79136,
      "componentType": 5126,
      "count": 4625,
      "max": [
        1,
        0,
        -0,
        1
      ],
      "min": [
        1,
        0,
        -0,
        1
      ],
      "type": "VEC4"
    },
    {
      "bufferView": 0,
      "byteOffset": 119988,
      "componentType": 5125,
      "count": 30000,
      "max": [
        4624
      ],
      "min": [
        0
      ],
      "type": "SCALAR"
    },
    {
      "bufferView": 1,
      "byteOffset": 229704,
      "componentType": 5126,
      "count": 10036,
      "max": [
        -0.064473003149032593,
        -0.028498999774456024,
        1.9999999949504854e-06
      ],
      "min": [
        -0.19347900152206421,
        -0.20240400731563568,
        -0.12681899964809418
      ],
      "type": "VEC3"
    },
    {
      "bufferView": 1,
      "byteOffset": 350136,
      "componentType": 5126,
      "count": 10036,
      "max": [
        0.99999451637268066,
        0.99994301795959473,
        0.9997977614402771
      ],
      "min": [
        -0.99992859363555908,
        -0.99930214881896973,
        -0.99985432624816895
      ],
      "type": "VEC3"
    },
    {
      "bufferView": 2,
      "byteOffset": 153136,
      "componentType": 5126,
      "count": 10036,
      "max": [
        1,
        0,
        -0,
        1
      ],
      "min": [
        1,
        0,
        -0,
        1
      ],
      "type": "VEC4"
    },
    {
      "bufferView": 0,
      "byteOffset": 239988,
      "componentType": 5125,
      "count": 60000,
      "max": [
        10035
      ],
      "min": [
        0
      ],
      "type": "SCALAR"
    },
    {
      "bufferView": 1,
      "byteOffset": 470568,
      "componentType": 5126,
      "count": 1177,
      "max": [
        -0.10243599861860275,
        -0.04032599925994873,
        -0.082547999918460846
      ],
      "min": [
        -0.19283600151538849,
        -0.0890360027551651,
        -0.12611599266529083
      ],
      "type": "VEC3"
    },
    {
      "bufferView": 1,
      "byteOffset": 484692,
      "componentType": 5126,
      "count": 1177,
      "max": [
        1,
        1,
        0.99610018730163574
      ],
      "min": [
        -0.99966371059417725,
        -0.99849534034729004,
        -0.99953961372375488
      ],
      "type": "VEC3"
    },
    {
      "bufferView": 2,
      "byteOffset": 313712,
      "componentType": 5126,
      "count": 1177,
      "max": [
        1,
        0,
        -0,
        1
      ],
      "min": [
        1,
        0,
        -0,
        1
      ],
      "type": "VEC4"
    },
    {
      "bufferView": 0,
      "byteOffset": 479988,
      "componentType": 5125,
      "count": 5997,
      "max": [
        1176
      ],
      "min": [
        0
      ],
      "type": "SCALAR"
    },
    {
      "bufferView": 1,
      "byteOffset": 498816,
      "componentType": 5126,
      "count": 690,
      "max": [
        -0.14812900125980377,
        -0.067309997975826263,
        -0.06246199831366539
      ],
      "min": [
        -0.18543499708175659,
        -0.11174099892377853,
        -0.098502002656459808
      ],
      "type": "VEC3"
    },
    {
      "bufferView": 1,
      "byteOffset": 507096,
      "componentType": 5126,
      "count": 690,
      "max": [
        0.99832433462142944,
        1,
        1
      ],
      "min": [
        -1,
        -1,
        -1
      ],
      "type": "VEC3"
    },
    {
      "bufferView": 2,
      "byteOffset": 332544,
      "componentType": 5126,
      "count": 690,
      "max": [
        1,
        0,
        -0,
        1
      ],
      "min": [
        1,
        0,
        -0,
        1
      ],
      "type": "VEC4"
    },
    {
      "bufferView": 0,
      "byteOffset": 503976,
      "componentType": 5125,
      "count": 5997,
      "max": [
        689
      ],
      "min": [
        0
      ],
      "type": "SCALAR"
    }
  ],
  "asset": {
    "extras": {
      "author": "Tommensink (https://sketchfab.com/Tommensink)",
      "license": "CC-BY-4.0 (http://creativecommons.org/licenses/by/4.0/)",
      "source": "https://sketchfab.com/models/a557a951b9e3416687cfb3f675ed2891",
      "title": "Patient 2018-04-12"
    },
    "generator": "Sketchfab-4.22.0",
    "version": "2.0"
  },
  "bufferViews": [
    {
      "buffer": 0,
      "byteLength": 527964,
      "byteOffset": 0,
      "name": "floatBufferViews",
      "target": 34963
    },
    {
      "buffer": 0,
      "byteLength": 515376,
      "byteOffset": 527964,
      "byteStride": 12,
      "name": "floatBufferViews",
      "target": 34962
    },
    {
      "buffer": 0,
      "byteLength": 343584,
      "byteOffset": 1043340,
      "byteStride": 16,
      "name": "floatBufferViews",
      "target": 34962
    }
  ],
  "buffers": [
    {
      "byteLength": 1386924,
      "uri": "scene.bin"
    }
  ],
  "materials": [
    {
      "doubleSided": false,
      "emissiveFactor": [
        0,
        0,
        0
      ],
      "name": "SkinMaterial",
      "pbrMetallicRoughness": {
        "baseColorFactor": [
          0.96470599999999995,
          0.78431399999999996,
          0.69411800000000001,
          1
        ],
        "metallicFactor": 0,
        "roughnessFactor": 0.5
      }
    },
    {
      "doubleSided": false,
      "emissiveFactor": [
        0.10000000000000001,
        0.10000000000000001,
        0.10000000000000001
      ],
      "name": "TissueMaterial",
      "pbrMetallicRoughness": {
        "baseColorFactor": [
          0.13333300000000001,
          0.11372500000000001,
          0.67058799999999996,
          1
        ],
        "metallicFactor": 0.309,
        "roughnessFactor": 0.27200000000000002
      }
    },
    {
      "doubleSided": false,
      "emissiveFactor": [
        0,
        0,
        0
      ],
      "name": "FocusMaterial",
      "pbrMetallicRoughness": {
        "baseColorFactor": [
          0.860294,
          0,
          0,
          1
        ],
        "metallicFactor": 0,
        "roughnessFactor": 0.25
      }
    },
    {
      "doubleSided": false,
      "emissiveFactor": [
        0,
        0,
        0
      ],
      "name": "TumorMaterial",
      "pbrMetallicRoughness": {
        "baseColorFactor": [
          1,
          1,
          0,
          1
        ],
        "metallicFactor": 0,
        "roughnessFactor": 0.5
      }
    }
  ],
  "meshes": [
    {
      "primitives": [
        {
          "attributes": {
            "NORMAL": 1,
            "POSITION": 0,
            "TANGENT": 2
          },
          "indices": 3,
          "material": 0,
          "mode": 4
        }
      ]
    },
    {
      "primitives": [
        {
          "attributes": {
            "NORMAL": 5,
            "POSITION": 4,
            "TANGENT": 6
          },
          "indices": 7,
          "material": 0,
          "mode": 4
        }
      ]
    },
    {
      "primitives": [
        {
          "attributes": {
            "NORMAL": 9,
            "POSITION": 8,
            "TANGENT": 10
          },
          "indices": 11,
          "material": 1,
          "mode": 4
        }
      ]
    },
    {
      "primitives": [
        {
          "attributes": {
            "NORMAL": 13,
            "POSITION": 12,
            "TANGENT": 14
          },
          "indices": 15,
          "material": 2,
          "mode": 4
        }
      ]
    },
    {
      "primitives": [
        {
          "attributes": {
            "NORMAL": 17,
            "POSITION": 16,
            "TANGENT": 18
          },
          "indices": 19,
          "material": 3,
          "mode": 4
        }
      ]
    }
  ],
  "nodes": [
    {
      "children": [
        1
      ],
      "name": "RootNode (gltf orientation matrix)",
      "rotation": [
        -0.70710678118654746,
        -0,
        -0,
        0.70710678118654757
      ]
    },
    {
      "children": [
        2
      ],
      "name": "RootNode (model correction matrix)"
    },
    {
      "children": [
        3
      ],
      "name": "root"
    },
    {
      "children": [
        4
      ],
      "matrix": [
        1,
        0,
        0,
        0,
        0,
        2.2204460492503131e-16,
        1,
        0,
        0,
        -1,
        2.2204460492503131e-16,
        0,
        0,
        0,
        0,
        1
      ],
      "name": "GLTF_SceneRootNode"
    },
    {
      "children": [
        5,
        9,
        13,
        17,
        21
      ],
      "matrix": [
        1,
        0,
        0,
        0,
        0,
        1,
        0,
        0,
        0,
        0,
        1,
        0,
        0,
        0,
        -2.7000000476837158,
        1
      ],
      "name": "Presentatie - 2019-01-26_0"
    },
    {
      "children": [
        6
      ],
      "name": "Skin_1"
    },
    {
      "children": [
        7
      ],
      "matrix": [
        -1,
        0,
        0,
        0,
        -0,
        1,
        0,
        0,
        0,
        -0,
        -1,
        0,
        0,
        0,
        0,
        1
      ],
      "name": "transform_2"
    },
    {
      "children": [
        8
      ],
      "matrix": [
        1,
        -0,
        0,
        0,
        0,
        0,
        1,
        0,
        0,
        -1,
        0,
        0,
        0.13400000333786011,
        0,
        0.11800000071525574,
        1
      ],
      "name": "default_3"
    },
    {
      "mesh": 0,
      "name": ""
    },
    {
      "children": [
        10
      ],
      "name": "Skull_4"
    },
    {
      "children": [
        11
      ],
      "matrix": [
        -1,
        0,
        0,
        0,
        -0,
        1,
        0,
        0,
        0,
        -0,
        -1,
        0,
        0,
        0,
        0,
        1
      ],
      "name": "transform_5"
    },
    {
      "children": [
        12
      ],
      "matrix": [
        1,
        -0,
        0,
        0,
        0,
        0,
        1,
        0,
        0,
        -1,
        0,
        0,
        0.13400000333786011,
        0,
        0.11800000071525574,
        1
      ],
      "name": "default_6"
    },
    {
      "mesh": 1,
      "name": ""
    },
    {
      "children": [
        14
      ],
      "name": "Brain_7"
    },
    {
      "children": [
        15
      ],
      "matrix": [
        -1,
        0,
        0,
        0,
        -0,
        1,
        0,
        0,
        0,
        -0,
        -1,
        0,
        0,
        0,
        0,
        1
      ],
      "name": "transform_8"
    },
    {
      "children": [
        16
      ],
      "matrix": [
        0.94671675268685718,
        -0.06725518388748726,
        -0.041278096793754826,
        0,
        0.069575568261306772,
        0.47692501587469038,
        0.81865878110457546,
        0,
        -0.037234207365806682,
        -0.81885272213770066,
        0.48020243319246125,
        0,
        0.13009999692440033,
        0.10430002212524414,
        0.1080000251531601,
        1
      ],
      "name": "default_9"
    },
    {
      "mesh": 2,
      "name": ""
    },
    {
      "children": [
        18
      ],
      "name": "Vessel_10"
    },
    {
      "children": [
        19
      ],
      "matrix": [
        -1,
        0,
        0,
        0,
        -0,
        1,
        0,
        0,
        0,
        -0,
        -1,
        0,
        0,
        0,
        0,
        1
      ],
      "name": "transform_11"
    },
    {
      "children": [
        20
      ],
      "matrix": [
        1,
        -0,
        0,
        0,
        0,
        0,
        1,
        0,
        0,
        -1,
        0,
        0,
        0.13400000333786011,
        0,
        0.11800000071525574,
        1
      ],
      "name": "default_12"
    },
    {
      "mesh": 3,
      "name": ""
    },
    {
      "children": [
        22
      ],
      "name": "Tumor_13"
    },
    {
      "children": [
        23
      ],
      "matrix": [
        -1,
        0,
        0,
        0,
        -0,
        1,
        0,
        0,
        0,
        -0,
        -1,
        0,
        0,
        0,
        0,
        1
      ],
      "name": "transform_14"
    },
    {
      "children": [
        24
      ],
      "matrix": [
        1,
        -0,
        0,
        0,
        0,
        0,
        1,
        0,
        0,
        -1,
        0,
        0,
        0.13400000333786011,
        0,
        0.11800003051757812,
        1
      ],
      "name": "default_15"
    },
    {
      "mesh": 4,
      "name": ""
    }
  ],
  "scene": 0,
  "scenes": [
    {
      "name": "OSG_Scene",
      "nodes": [
        0
      ]
    }
  ]
}

