{
  "accessors": [
    {
      "bufferView": 0,
      "componentType": 5126,
      "count": 690,
      "type": "VEC3",
      "max": [
        -0.14812900125980377,
        -0.067309997975826263,
        0.098502002656459808
      ],
      "min": [
        -0.18543499708175659,
        -0.11174099892377853,
        0.06246199831366539
      ]
    },
    {
      "bufferView": 1,
      "componentType": 5126,
      "count": 690,
      "type": "VEC3",
      "max": [
        0.99832421541213989,
        1.0,
        1.0
      ],
      "min": [
        -1.0,
        -1.0,
        -1.0
      ]
    },
    {
      "bufferView": 2,
      "componentType": 5126,
      "count": 690,
      "type": "VEC4",
      "max": [
        1.0,
        0.0,
        0.0,
        -1.0
      ],
      "min": [
        1.0,
        0.0,
        0.0,
        -1.0
      ]
    },
    {
      "bufferView": 3,
      "componentType": 5125,
      "count": 5997,
      "type": "SCALAR",
      "max": [
        689.0
      ],
      "min": [
        0.0
      ]
    }
  ],
  "asset": {
    "generator": "UnityGLTF (2018.3.1f1)",
    "version": "2.0"
  },
  "buffers": [
    {
      "uri": "Unity2Skfb.bin",
      "byteLength": 51588
    }
  ],
  "bufferViews": [
    {
      "buffer": 0,
      "byteLength": 8280
    },
    {
      "buffer": 0,
      "byteOffset": 8280,
      "byteLength": 8280
    },
    {
      "buffer": 0,
      "byteOffset": 16560,
      "byteLength": 11040
    },
    {
      "buffer": 0,
      "byteOffset": 27600,
      "byteLength": 23988
    }
  ],
  "materials": [
    {
      "pbrMetallicRoughness": {
        "baseColorFactor": [
          1.0,
          1.0,
          0.0,
          1.0
        ],
        "metallicFactor": 0.0,
        "roughnessFactor": 0.5
      },
      "name": "TumorMaterial"
    }
  ],
  "meshes": [
    {
      "primitives": [
        {
          "attributes": {
            "POSITION": 0,
            "NORMAL": 1,
            "TANGENT": 2
          },
          "indices": 3,
          "material": 0
        }
      ],
      "name": "default"
    }
  ],
  "nodes": [
    {
      "children": [
        1
      ],
      "rotation": [
        0.0,
        0.0,
        0.0,
        -1.0
      ],
      "translation": [
        0.0,
        0.0,
        -2.7
      ],
      "name": "Tumor"
    },
    {
      "children": [
        2
      ],
      "rotation": [
        0.0,
        -1.0,
        0.0,
        0.0
      ],
      "name": "transform"
    },
    {
      "mesh": 0,
      "rotation": [
        -0.7071068,
        0.0,
        0.0,
        -0.7071068
      ],
      "translation": [
        0.134,
        0.0,
        0.118000031
      ],
      "name": "default"
    }
  ],
  "scene": 0,
  "scenes": [
    {
      "nodes": [
        0
      ],
      "name": "Unity2Skfb"
    }
  ]
}