{"asset":{"generator":"3D Builder","version":"2.0"},"scene":0,"scenes":[{"nodes":[0]}],"nodes":[{"mesh":0,"matrix":[1,0,0,0,0,-1.1920928955078125E-7,-0.99999988079071045,0,0,0.99999988079071045,-1.1920928955078125E-7,0,-134982.765625,0.053982719779014587,452839.8125,1]}],"meshes":[{"primitives":[{"attributes":{"POSITION":0},"mode":4,"indices":11,"material":0},{"attributes":{"POSITION":1},"mode":4,"indices":12,"material":1},{"attributes":{"POSITION":2},"mode":4,"indices":13,"material":2},{"attributes":{"POSITION":3},"mode":4,"indices":14,"material":3},{"attributes":{"POSITION":4},"mode":4,"indices":15,"material":4},{"attributes":{"POSITION":5},"mode":4,"indices":16,"material":5},{"attributes":{"POSITION":6},"mode":4,"indices":17,"material":6},{"attributes":{"POSITION":7},"mode":4,"indices":18,"material":7},{"attributes":{"POSITION":8},"mode":4,"indices":19,"material":8},{"attributes":{"POSITION":9},"mode":4,"indices":20,"material":9},{"attributes":{"POSITION":10},"mode":4,"indices":21,"material":10}]}],"materials":[{"name":"floorplate","pbrMetallicRoughness":{"baseColorFactor":[0.60382741689682007,0,0.60382741689682007,1],"metallicFactor":0,"roughnessFactor":1},"alphaMode":"OPAQUE"},{"name":"building","pbrMetallicRoughness":{"baseColorFactor":[0.35593602061271667,0.061464957892894745,0.048118617385625839,1],"metallicFactor":0,"roughnessFactor":1},"alphaMode":"OPAQUE"},{"name":"forest","pbrMetallicRoughness":{"baseColorFactor":[0.23108154535293579,0.39180481433868408,0.1682220846414566,1],"metallicFactor":0,"roughnessFactor":1},"alphaMode":"OPAQUE"},{"name":"terrain","pbrMetallicRoughness":{"baseColorFactor":[0.55261087417602539,0.76776880025863647,0.32323554158210754,1],"metallicFactor":0,"roughnessFactor":1},"alphaMode":"OPAQUE"},{"name":"bare","pbrMetallicRoughness":{"baseColorFactor":[0.60382741689682007,0.60382741689682007,0.56394481658935547,1],"metallicFactor":0,"roughnessFactor":1},"alphaMode":"OPAQUE"},{"name":"road","pbrMetallicRoughness":{"baseColorFactor":[0.955104649066925,0.92221993207931519,0.955104649066925,1],"metallicFactor":0,"roughnessFactor":1},"alphaMode":"OPAQUE"},{"name":"slowspeed","pbrMetallicRoughness":{"baseColorFactor":[0.955104649066925,0.7522621750831604,0.7522621750831604,1],"metallicFactor":0,"roughnessFactor":1},"alphaMode":"OPAQUE"},{"name":"railroad","pbrMetallicRoughness":{"baseColorFactor":[0.52096515893936157,0.52096515893936157,0.484419047832489,1],"metallicFactor":0,"roughnessFactor":1},"alphaMode":"OPAQUE"},{"name":"sand","pbrMetallicRoughness":{"baseColorFactor":[0.79137593507766724,0.76776880025863647,0.47995948791503906,1],"metallicFactor":0,"roughnessFactor":1},"alphaMode":"OPAQUE"},{"name":"unpaved","pbrMetallicRoughness":{"baseColorFactor":[0.60382741689682007,0.54619461297988892,0.44514557719230652,1],"metallicFactor":0,"roughnessFactor":1},"alphaMode":"OPAQUE"},{"name":"water","pbrMetallicRoughness":{"baseColorFactor":[0.22722887992858887,0.484419047832489,0.65771090984344482,1],"metallicFactor":0,"roughnessFactor":1},"alphaMode":"OPAQUE"}],"accessors":[{"bufferView":0,"byteOffset":0,"count":36,"componentType":5126,"type":"VEC3","min":[134035.140625,451330.875,0],"max":[136200.609375,455255.40625,5]},{"bufferView":0,"byteOffset":432,"count":84318,"componentType":5126,"type":"VEC3","min":[134156.25,451452.375,5],"max":[136147.5625,455189.90625,92.083999633789063]},{"bufferView":0,"byteOffset":1012248,"count":431514,"componentType":5126,"type":"VEC3","min":[134120.515625,451998.3125,5],"max":[136164.71875,455217.09375,8]},{"bufferView":0,"byteOffset":6190416,"count":117958,"componentType":5126,"type":"VEC3","min":[134093.25,451666.78125,5],"max":[136164.953125,455223.28125,8]},{"bufferView":0,"byteOffset":7605912,"count":145597,"componentType":5126,"type":"VEC3","min":[134037.828125,451893.03125,5],"max":[136147.90625,455254.34375,8]},{"bufferView":0,"byteOffset":9353076,"count":128589,"componentType":5126,"type":"VEC3","min":[134035.140625,451877.625,5],"max":[136157.71875,455253.3125,8]},{"bufferView":0,"byteOffset":10896144,"count":159086,"componentType":5126,"type":"VEC3","min":[134108.828125,451886.5625,5],"max":[136162.03125,455245.6875,8]},{"bufferView":0,"byteOffset":12805176,"count":2194,"componentType":5126,"type":"VEC3","min":[134741.546875,451894.46875,5],"max":[135825.15625,455255.40625,8]},{"bufferView":0,"byteOffset":12831504,"count":1032,"componentType":5126,"type":"VEC3","min":[134558.375,452408.3125,5],"max":[136061.078125,454312.46875,7]},{"bufferView":0,"byteOffset":12843888,"count":5678,"componentType":5126,"type":"VEC3","min":[134220.28125,451842.1875,5],"max":[136005.515625,455069.28125,7]},{"bufferView":0,"byteOffset":12912024,"count":6170,"componentType":5126,"type":"VEC3","min":[134035.140625,451348.75,5],"max":[136200.609375,455255.40625,6]},{"bufferView":1,"byteOffset":0,"count":204,"componentType":5125,"type":"SCALAR"},{"bufferView":1,"byteOffset":816,"count":499800,"componentType":5125,"type":"SCALAR"},{"bufferView":1,"byteOffset":2000016,"count":2498796,"componentType":5125,"type":"SCALAR"},{"bufferView":1,"byteOffset":11995200,"count":742086,"componentType":5125,"type":"SCALAR"},{"bufferView":1,"byteOffset":14963544,"count":959178,"componentType":5125,"type":"SCALAR"},{"bufferView":1,"byteOffset":18800256,"count":896400,"componentType":5125,"type":"SCALAR"},{"bufferView":1,"byteOffset":22385856,"count":1059954,"componentType":5125,"type":"SCALAR"},{"bufferView":1,"byteOffset":26625672,"count":12906,"componentType":5125,"type":"SCALAR"},{"bufferView":1,"byteOffset":26677296,"count":6846,"componentType":5125,"type":"SCALAR"},{"bufferView":1,"byteOffset":26704680,"count":33726,"componentType":5125,"type":"SCALAR"},{"bufferView":1,"byteOffset":26839584,"count":36876,"componentType":5125,"type":"SCALAR"}],"bufferViews":[{"buffer":0,"byteOffset":0,"byteLength":12986064,"byteStride":12,"target":34962},{"buffer":0,"byteOffset":12986064,"byteLength":26987088,"target":34963}],"buffers":[{"byteLength":39973152,"uri":"kanaleneiland_aenj_GLTF.bin"}]}