{
  "accessors": [
    {
      "bufferView": 0,
      "componentType": 5126,
      "count": 4946,
      "type": "VEC3",
      "max": [
        -0.046201001852750778,
        -0.012567999772727489,
        0.19119499623775482
      ],
      "min": [
        -0.21766200661659241,
        -0.22259899973869324,
        0.0
      ]
    },
    {
      "bufferView": 1,
      "componentType": 5126,
      "count": 4946,
      "type": "VEC3",
      "max": [
        1.0,
        1.0,
        1.0
      ],
      "min": [
        -1.0,
        -1.0,
        -1.0
      ]
    },
    {
      "bufferView": 2,
      "componentType": 5126,
      "count": 4946,
      "type": "VEC4",
      "max": [
        1.0,
        0.0,
        0.0,
        -1.0
      ],
      "min": [
        1.0,
        0.0,
        0.0,
        -1.0
      ]
    },
    {
      "bufferView": 3,
      "componentType": 5125,
      "count": 29997,
      "type": "SCALAR",
      "max": [
        4945.0
      ],
      "min": [
        0.0
      ]
    },
    {
      "bufferView": 4,
      "componentType": 5126,
      "count": 4625,
      "type": "VEC3",
      "max": [
        -0.058993000537157059,
        -0.034012999385595322,
        0.1855819970369339
      ],
      "min": [
        -0.20439200103282928,
        -0.21901200711727142,
        0.0
      ]
    },
    {
      "bufferView": 5,
      "componentType": 5126,
      "count": 4625,
      "type": "VEC3",
      "max": [
        0.99958258867263794,
        1.0,
        1.0
      ],
      "min": [
        -1.0,
        -1.0,
        -1.0
      ]
    },
    {
      "bufferView": 6,
      "componentType": 5126,
      "count": 4625,
      "type": "VEC4",
      "max": [
        1.0,
        0.0,
        0.0,
        -1.0
      ],
      "min": [
        1.0,
        0.0,
        0.0,
        -1.0
      ]
    },
    {
      "bufferView": 7,
      "componentType": 5125,
      "count": 30000,
      "type": "SCALAR",
      "max": [
        4624.0
      ],
      "min": [
        0.0
      ]
    },
    {
      "bufferView": 8,
      "componentType": 5126,
      "count": 10036,
      "type": "VEC3",
      "max": [
        -0.064473003149032593,
        -0.028498999774456024,
        0.12681899964809418
      ],
      "min": [
        -0.19347900152206421,
        -0.20240400731563568,
        -1.9999999949504854E-06
      ]
    },
    {
      "bufferView": 9,
      "componentType": 5126,
      "count": 10036,
      "type": "VEC3",
      "max": [
        0.99999451637268066,
        0.99994301795959473,
        0.999854326248169
      ],
      "min": [
        -0.99992859363555908,
        -0.99930214881896973,
        -0.99979764223098755
      ]
    },
    {
      "bufferView": 10,
      "componentType": 5126,
      "count": 10036,
      "type": "VEC4",
      "max": [
        1.0,
        0.0,
        0.0,
        -1.0
      ],
      "min": [
        1.0,
        0.0,
        0.0,
        -1.0
      ]
    },
    {
      "bufferView": 11,
      "componentType": 5125,
      "count": 60000,
      "type": "SCALAR",
      "max": [
        10035.0
      ],
      "min": [
        0.0
      ]
    },
    {
      "bufferView": 12,
      "componentType": 5126,
      "count": 1177,
      "type": "VEC3",
      "max": [
        -0.10243599861860275,
        -0.04032599925994873,
        0.12611599266529083
      ],
      "min": [
        -0.19283600151538849,
        -0.0890360027551651,
        0.082547999918460846
      ]
    },
    {
      "bufferView": 13,
      "componentType": 5126,
      "count": 1177,
      "type": "VEC3",
      "max": [
        1.0,
        1.0,
        0.99953949451446533
      ],
      "min": [
        -0.99966371059417725,
        -0.99849534034729,
        -0.99610018730163574
      ]
    },
    {
      "bufferView": 14,
      "componentType": 5126,
      "count": 1177,
      "type": "VEC4",
      "max": [
        1.0,
        0.0,
        0.0,
        -1.0
      ],
      "min": [
        1.0,
        0.0,
        0.0,
        -1.0
      ]
    },
    {
      "bufferView": 15,
      "componentType": 5125,
      "count": 5997,
      "type": "SCALAR",
      "max": [
        1176.0
      ],
      "min": [
        0.0
      ]
    },
    {
      "bufferView": 16,
      "componentType": 5126,
      "count": 690,
      "type": "VEC3",
      "max": [
        -0.14812900125980377,
        -0.067309997975826263,
        0.098502002656459808
      ],
      "min": [
        -0.18543499708175659,
        -0.11174099892377853,
        0.06246199831366539
      ]
    },
    {
      "bufferView": 17,
      "componentType": 5126,
      "count": 690,
      "type": "VEC3",
      "max": [
        0.99832421541213989,
        1.0,
        1.0
      ],
      "min": [
        -1.0,
        -1.0,
        -1.0
      ]
    },
    {
      "bufferView": 18,
      "componentType": 5126,
      "count": 690,
      "type": "VEC4",
      "max": [
        1.0,
        0.0,
        0.0,
        -1.0
      ],
      "min": [
        1.0,
        0.0,
        0.0,
        -1.0
      ]
    },
    {
      "bufferView": 19,
      "componentType": 5125,
      "count": 5997,
      "type": "SCALAR",
      "max": [
        689.0
      ],
      "min": [
        0.0
      ]
    }
  ],
  "asset": {
    "generator": "UnityGLTF (2018.3.1f1)",
    "version": "2.0"
  },
  "buffers": [
    {
      "uri": "Unity2Skfb.bin",
      "byteLength": 1386924
    }
  ],
  "bufferViews": [
    {
      "buffer": 0,
      "byteLength": 59352
    },
    {
      "buffer": 0,
      "byteOffset": 59352,
      "byteLength": 59352
    },
    {
      "buffer": 0,
      "byteOffset": 118704,
      "byteLength": 79136
    },
    {
      "buffer": 0,
      "byteOffset": 197840,
      "byteLength": 119988
    },
    {
      "buffer": 0,
      "byteOffset": 317828,
      "byteLength": 55500
    },
    {
      "buffer": 0,
      "byteOffset": 373328,
      "byteLength": 55500
    },
    {
      "buffer": 0,
      "byteOffset": 428828,
      "byteLength": 74000
    },
    {
      "buffer": 0,
      "byteOffset": 502828,
      "byteLength": 120000
    },
    {
      "buffer": 0,
      "byteOffset": 622828,
      "byteLength": 120432
    },
    {
      "buffer": 0,
      "byteOffset": 743260,
      "byteLength": 120432
    },
    {
      "buffer": 0,
      "byteOffset": 863692,
      "byteLength": 160576
    },
    {
      "buffer": 0,
      "byteOffset": 1024268,
      "byteLength": 240000
    },
    {
      "buffer": 0,
      "byteOffset": 1264268,
      "byteLength": 14124
    },
    {
      "buffer": 0,
      "byteOffset": 1278392,
      "byteLength": 14124
    },
    {
      "buffer": 0,
      "byteOffset": 1292516,
      "byteLength": 18832
    },
    {
      "buffer": 0,
      "byteOffset": 1311348,
      "byteLength": 23988
    },
    {
      "buffer": 0,
      "byteOffset": 1335336,
      "byteLength": 8280
    },
    {
      "buffer": 0,
      "byteOffset": 1343616,
      "byteLength": 8280
    },
    {
      "buffer": 0,
      "byteOffset": 1351896,
      "byteLength": 11040
    },
    {
      "buffer": 0,
      "byteOffset": 1362936,
      "byteLength": 23988
    }
  ],
  "materials": [
    {
      "pbrMetallicRoughness": {
        "baseColorFactor": [
          0.964705944,
          0.7843138,
          0.694117665,
          0.145098045
        ],
        "metallicFactor": 0.0,
        "roughnessFactor": 0.5
      },
      "emissiveFactor": [
        0.0,
        0.0,
        0.0
      ],
      "alphaMode": "BLEND",
      "name": "SkinMaterial"
    },
    {
      "pbrMetallicRoughness": {
        "baseColorFactor": [
          1.0,
          0.9607844,
          0.9215687,
          0.0470588244
        ],
        "metallicFactor": 0.0,
        "roughnessFactor": 0.5
      },
      "alphaMode": "BLEND",
      "name": "BoneMaterial"
    },
    {
      "pbrMetallicRoughness": {
        "baseColorFactor": [
          0.13333334,
          0.113725491,
          0.670588255,
          0.447058827
        ],
        "metallicFactor": 0.34599998593330383,
        "roughnessFactor": 0.2720000147819519
      },
      "emissiveFactor": [
        0.1,
        0.1,
        0.1
      ],
      "alphaMode": "BLEND",
      "name": "TissueMaterial"
    },
    {
      "pbrMetallicRoughness": {
        "baseColorFactor": [
          0.8602941,
          0.0,
          0.0,
          1.0
        ],
        "metallicFactor": 0.0,
        "roughnessFactor": 0.25
      },
      "name": "FocusMaterial"
    },
    {
      "pbrMetallicRoughness": {
        "baseColorFactor": [
          1.0,
          1.0,
          0.0,
          1.0
        ],
        "metallicFactor": 0.0,
        "roughnessFactor": 0.5
      },
      "name": "TumorMaterial"
    }
  ],
  "meshes": [
    {
      "primitives": [
        {
          "attributes": {
            "POSITION": 0,
            "NORMAL": 1,
            "TANGENT": 2
          },
          "indices": 3,
          "material": 0
        }
      ],
      "name": "default"
    },
    {
      "primitives": [
        {
          "attributes": {
            "POSITION": 4,
            "NORMAL": 5,
            "TANGENT": 6
          },
          "indices": 7,
          "material": 1
        }
      ],
      "name": "default"
    },
    {
      "primitives": [
        {
          "attributes": {
            "POSITION": 8,
            "NORMAL": 9,
            "TANGENT": 10
          },
          "indices": 11,
          "material": 2
        }
      ],
      "name": "default"
    },
    {
      "primitives": [
        {
          "attributes": {
            "POSITION": 12,
            "NORMAL": 13,
            "TANGENT": 14
          },
          "indices": 15,
          "material": 3
        }
      ],
      "name": "default"
    },
    {
      "primitives": [
        {
          "attributes": {
            "POSITION": 16,
            "NORMAL": 17,
            "TANGENT": 18
          },
          "indices": 19,
          "material": 4
        }
      ],
      "name": "default"
    }
  ],
  "nodes": [
    {
      "children": [
        1,
        4,
        7,
        10,
        13
      ],
      "rotation": [
        0.0,
        0.0,
        0.0,
        -1.0
      ],
      "translation": [
        0.0,
        0.0,
        -2.7
      ],
      "name": "Presentation_2019-01-26"
    },
    {
      "children": [
        2
      ],
      "rotation": [
        0.0,
        0.0,
        0.0,
        -1.0
      ],
      "name": "Skin"
    },
    {
      "children": [
        3
      ],
      "rotation": [
        0.0,
        -1.0,
        0.0,
        0.0
      ],
      "name": "transform"
    },
    {
      "mesh": 0,
      "rotation": [
        -0.7071068,
        0.0,
        0.0,
        -0.7071068
      ],
      "translation": [
        0.134,
        0.0,
        0.118
      ],
      "name": "default"
    },
    {
      "children": [
        5
      ],
      "rotation": [
        0.0,
        0.0,
        0.0,
        -1.0
      ],
      "name": "Skull"
    },
    {
      "children": [
        6
      ],
      "rotation": [
        0.0,
        -1.0,
        0.0,
        0.0
      ],
      "name": "transform"
    },
    {
      "mesh": 1,
      "rotation": [
        -0.7071068,
        0.0,
        0.0,
        -0.7071068
      ],
      "translation": [
        0.134,
        0.0,
        0.118
      ],
      "name": "default"
    },
    {
      "children": [
        8
      ],
      "rotation": [
        0.0,
        0.0,
        0.0,
        -1.0
      ],
      "name": "Brain"
    },
    {
      "children": [
        9
      ],
      "rotation": [
        0.0,
        -1.0,
        0.0,
        0.0
      ],
      "name": "transform"
    },
    {
      "mesh": 2,
      "rotation": [
        -0.4972529,
        -0.00122798816,
        0.04155055,
        -0.8666093
      ],
      "scale": [
        0.949999869,
        0.9500002,
        0.9500003
      ],
      "translation": [
        0.1301,
        0.104300022,
        0.108000025
      ],
      "name": "default"
    },
    {
      "children": [
        11
      ],
      "rotation": [
        0.0,
        0.0,
        0.0,
        -1.0
      ],
      "name": "Vessel"
    },
    {
      "children": [
        12
      ],
      "rotation": [
        0.0,
        -1.0,
        0.0,
        0.0
      ],
      "name": "transform"
    },
    {
      "mesh": 3,
      "rotation": [
        -0.7071068,
        0.0,
        0.0,
        -0.7071068
      ],
      "translation": [
        0.134,
        0.0,
        0.118
      ],
      "name": "default"
    },
    {
      "children": [
        14
      ],
      "rotation": [
        0.0,
        0.0,
        0.0,
        -1.0
      ],
      "name": "Tumor"
    },
    {
      "children": [
        15
      ],
      "rotation": [
        0.0,
        -1.0,
        0.0,
        0.0
      ],
      "name": "transform"
    },
    {
      "mesh": 4,
      "rotation": [
        -0.7071068,
        0.0,
        0.0,
        -0.7071068
      ],
      "translation": [
        0.134,
        0.0,
        0.118000031
      ],
      "name": "default"
    }
  ],
  "scene": 0,
  "scenes": [
    {
      "nodes": [
        0
      ],
      "name": "Unity2Skfb"
    }
  ]
}