{
  "accessors": [
    {
      "bufferView": 0,
      "componentType": 5126,
      "count": 4946,
      "type": "VEC3",
      "max": [
        -0.046201001852750778,
        -0.012567999772727489,
        0.19119499623775482
      ],
      "min": [
        -0.21766200661659241,
        -0.22259899973869324,
        0.0
      ]
    },
    {
      "bufferView": 1,
      "componentType": 5126,
      "count": 4946,
      "type": "VEC3",
      "max": [
        1.0,
        1.0,
        1.0
      ],
      "min": [
        -1.0,
        -1.0,
        -1.0
      ]
    },
    {
      "bufferView": 2,
      "componentType": 5126,
      "count": 4946,
      "type": "VEC4",
      "max": [
        1.0,
        0.0,
        0.0,
        -1.0
      ],
      "min": [
        1.0,
        0.0,
        0.0,
        -1.0
      ]
    },
    {
      "bufferView": 3,
      "componentType": 5125,
      "count": 29997,
      "type": "SCALAR",
      "max": [
        4945.0
      ],
      "min": [
        0.0
      ]
    }
  ],
  "asset": {
    "generator": "UnityGLTF (2018.3.1f1)",
    "version": "2.0"
  },
  "buffers": [
    {
      "uri": "Unity2Skfb.bin",
      "byteLength": 317828
    }
  ],
  "bufferViews": [
    {
      "buffer": 0,
      "byteLength": 59352
    },
    {
      "buffer": 0,
      "byteOffset": 59352,
      "byteLength": 59352
    },
    {
      "buffer": 0,
      "byteOffset": 118704,
      "byteLength": 79136
    },
    {
      "buffer": 0,
      "byteOffset": 197840,
      "byteLength": 119988
    }
  ],
  "materials": [
    {
      "pbrMetallicRoughness": {
        "baseColorFactor": [
          0.964705944,
          0.7843138,
          0.694117665,
          1.0
        ],
        "metallicFactor": 0.0,
        "roughnessFactor": 0.5
      },
      "emissiveFactor": [
        0.0,
        0.0,
        0.0
      ],
      "name": "SkinMaterial"
    }
  ],
  "meshes": [
    {
      "primitives": [
        {
          "attributes": {
            "POSITION": 0,
            "NORMAL": 1,
            "TANGENT": 2
          },
          "indices": 3,
          "material": 0
        }
      ],
      "name": "default"
    }
  ],
  "nodes": [
    {
      "children": [
        1
      ],
      "rotation": [
        0.0,
        0.0,
        0.0,
        -1.0
      ],
      "translation": [
        0.0,
        0.0,
        -2.7
      ],
      "name": "Skin"
    },
    {
      "children": [
        2
      ],
      "rotation": [
        0.0,
        -1.0,
        0.0,
        0.0
      ],
      "name": "transform"
    },
    {
      "mesh": 0,
      "rotation": [
        -0.7071068,
        0.0,
        0.0,
        -0.7071068
      ],
      "translation": [
        0.134,
        0.0,
        0.118
      ],
      "name": "default"
    }
  ],
  "scene": 0,
  "scenes": [
    {
      "nodes": [
        0
      ],
      "name": "Unity2Skfb"
    }
  ]
}